<?xml version="1.0" encoding="UTF-8" standalone="no"?>
<!DOCTYPE svg PUBLIC "-//W3C//DTD SVG 20010904//EN"
              "http://www.w3.org/TR/2001/REC-SVG-20010904/DTD/svg10.dtd">

<svg xmlns="http://www.w3.org/2000/svg"
     width="3.38889in" height="4.77778in"
     viewBox="0 0 305 430">
  <path id="選択範囲"
        fill="none" stroke="black" stroke-width="1"
        d="M 171.00,11.71
           C 182.38,13.46 186.92,13.73 198.00,18.43
             198.00,18.43 220.00,30.36 220.00,30.36
             226.23,33.62 228.88,33.62 234.96,35.59
             241.11,37.59 255.33,44.25 260.00,48.21
             271.93,58.34 277.41,71.95 283.00,86.00
             291.42,107.19 297.35,124.44 301.42,147.00
             303.35,157.66 305.13,160.69 305.00,172.00
             304.94,176.57 303.48,189.72 302.04,193.83
             302.04,193.83 298.32,201.01 298.32,201.01
             298.32,201.01 288.93,224.00 288.93,224.00
             287.63,228.73 288.03,234.10 288.00,239.00
             287.90,252.10 284.66,262.62 281.14,275.00
             275.28,295.61 263.23,323.35 248.41,338.82
             244.81,342.58 230.76,352.92 226.00,355.95
             221.49,358.82 210.81,364.87 206.00,366.62
             192.03,371.70 164.75,370.19 149.00,370.00
             137.31,369.86 125.89,363.08 116.00,357.42
             116.00,357.42 84.17,339.16 84.17,339.16
             80.86,336.63 74.92,329.55 72.52,326.00
             66.85,317.61 62.95,308.17 58.77,299.00
             57.49,296.19 54.38,288.37 52.53,286.50
             49.92,283.85 46.80,287.14 44.00,288.60
             44.00,288.60 25.00,298.39 25.00,298.39
             20.38,299.20 17.87,295.50 15.76,292.00
             10.59,283.41 12.11,274.55 12.00,265.00
             11.73,242.29 1.18,230.29 0.04,203.00
             0.04,203.00 2.38,174.00 2.38,174.00
             2.38,174.00 7.35,158.00 7.35,158.00
             7.35,158.00 15.69,119.00 15.69,119.00
             19.55,108.41 35.68,81.86 42.20,71.00
             51.84,54.93 63.44,35.33 80.00,25.87
             86.92,21.92 94.92,18.84 103.00,19.12
             109.07,19.34 114.85,21.44 121.00,20.71
             121.00,20.71 157.00,10.46 157.00,10.46
             164.13,9.50 164.56,10.71 171.00,11.71 Z
           M 189.57,46.32
           C 186.08,42.37 181.10,40.48 176.00,40.00
             176.00,40.00 182.33,51.00 182.33,51.00
             182.33,51.00 181.00,63.00 181.00,63.00
             184.22,64.75 185.87,65.71 187.78,69.02
             190.80,74.25 189.10,77.76 195.00,81.00
             197.42,72.47 195.57,53.11 189.57,46.32 Z
           M 115.00,51.00
           C 115.00,51.00 115.00,54.00 115.00,54.00
             115.00,54.00 118.00,54.00 118.00,54.00
             118.00,54.00 118.00,51.00 118.00,51.00
             118.00,51.00 115.00,51.00 115.00,51.00 Z
           M 137.00,58.00
           C 137.00,58.00 134.00,54.00 134.00,54.00
             133.42,57.01 134.32,57.08 137.00,58.00 Z
           M 87.00,62.00
           C 87.00,62.00 90.00,60.00 90.00,60.00
             90.00,60.00 89.00,59.00 89.00,59.00
             89.00,59.00 87.00,62.00 87.00,62.00 Z
           M 72.17,100.00
           C 72.17,100.00 96.71,77.00 96.71,77.00
             99.19,74.15 108.68,63.79 103.26,60.05
             101.35,58.72 98.87,60.36 97.28,61.44
             93.19,64.23 89.67,67.55 86.00,70.83
             86.00,70.83 75.96,79.37 75.96,79.37
             75.96,79.37 63.23,102.00 63.23,102.00
             59.06,108.99 54.59,113.54 53.00,122.00
             58.82,117.74 66.36,106.35 72.17,100.00 Z
           M 132.00,62.00
           C 132.00,62.00 135.00,60.00 135.00,60.00
             135.00,60.00 134.00,59.00 134.00,59.00
             134.00,59.00 132.00,62.00 132.00,62.00 Z
           M 129.00,65.00
           C 129.00,65.00 129.00,70.00 129.00,70.00
             129.00,70.00 135.00,70.00 135.00,70.00
             133.69,66.04 133.00,65.88 129.00,65.00 Z
           M 258.48,85.00
           C 253.37,77.43 248.24,72.46 239.00,71.00
             239.00,71.00 247.10,81.00 247.10,81.00
             247.10,81.00 266.69,117.00 266.69,117.00
             267.86,119.55 269.99,124.40 270.65,127.00
             271.77,131.35 271.04,135.26 275.00,138.00
             277.81,122.04 267.31,98.07 258.48,85.00 Z
           M 127.00,75.00
           C 127.00,75.00 126.00,78.00 126.00,78.00
             126.00,78.00 132.00,78.00 132.00,78.00
             132.00,78.00 127.00,75.00 127.00,75.00 Z
           M 180.09,104.00
           C 179.56,102.30 178.90,97.79 178.01,96.74
             175.78,94.13 172.22,96.13 170.42,98.15
             168.00,100.85 167.64,104.10 165.92,106.99
             164.09,110.05 160.89,112.64 158.00,114.70
             149.82,120.55 148.23,117.90 143.00,118.60
             139.19,119.11 139.32,119.86 134.00,119.99
             131.79,120.04 120.42,119.93 123.03,115.15
             124.82,111.89 132.74,110.28 135.99,108.79
             141.43,106.29 144.20,100.62 145.47,95.00
             146.35,91.13 147.02,80.17 141.87,78.96
             139.04,78.30 136.74,80.66 135.73,83.04
             135.73,83.04 133.51,92.72 133.51,92.72
             132.14,96.56 125.92,104.82 122.83,107.47
             122.83,107.47 98.00,122.34 98.00,122.34
             76.91,136.68 55.07,158.69 51.00,185.00
             58.36,181.52 62.48,174.12 71.00,169.68
             78.40,165.81 88.83,160.94 97.00,159.37
             104.05,158.02 111.82,159.99 119.00,160.00
             128.76,160.02 138.36,160.80 148.00,162.43
             169.60,166.09 172.42,177.51 192.00,181.56
             197.18,182.54 204.81,182.68 210.00,181.56
             216.51,180.31 224.29,177.02 231.00,177.37
             231.00,177.37 252.00,181.30 252.00,181.30
             254.83,181.73 260.19,182.57 262.85,181.30
             265.34,180.31 265.73,178.48 265.35,176.00
             265.35,176.00 259.91,157.00 259.91,157.00
             259.91,157.00 245.00,127.00 245.00,127.00
             245.00,127.00 238.30,114.32 238.30,114.32
             238.30,114.32 230.62,106.96 230.62,106.96
             224.60,99.87 225.47,93.40 217.00,92.00
             217.00,92.00 216.00,98.00 216.00,98.00
             216.00,98.00 206.00,104.82 206.00,104.82
             195.36,110.74 194.88,109.84 184.00,112.00
             184.00,112.00 185.00,110.00 185.00,110.00
             185.00,110.00 182.00,111.00 182.00,111.00
             181.36,107.48 181.07,107.20 180.09,104.00 Z
           M 120.00,92.00
           C 125.28,90.29 128.23,89.06 131.00,84.00
             124.78,84.37 121.86,85.74 120.00,92.00 Z
           M 197.00,88.00
           C 198.13,90.71 198.13,90.45 201.00,91.00
             201.00,91.00 197.00,88.00 197.00,88.00 Z
           M 165.00,106.00
           C 165.00,106.00 166.00,107.00 166.00,107.00
             166.00,107.00 166.00,106.00 166.00,106.00
             166.00,106.00 165.00,106.00 165.00,106.00 Z
           M 162.00,110.00
           C 162.00,110.00 163.00,111.00 163.00,111.00
             163.00,111.00 163.00,110.00 163.00,110.00
             163.00,110.00 162.00,110.00 162.00,110.00 Z
           M 124.00,134.86
           C 135.68,134.94 135.15,132.88 150.00,134.86
             155.17,135.35 160.51,135.64 164.61,139.49
             167.60,142.31 169.10,148.07 170.00,152.00
             162.83,150.50 162.48,147.42 155.00,146.30
             143.80,144.62 134.81,147.14 124.00,148.73
             124.00,148.73 110.00,150.00 110.00,150.00
             112.97,144.09 112.95,142.48 113.00,136.00
             117.92,134.80 119.08,135.02 124.00,134.86 Z
           M 210.00,156.52
           C 216.30,154.40 230.47,152.09 237.00,152.51
             245.25,153.05 252.70,153.82 255.00,163.00
             252.21,163.74 245.59,165.54 243.00,165.53
             243.00,165.53 228.00,163.09 228.00,163.09
             223.96,162.81 220.01,163.65 216.00,164.00
             209.58,164.56 204.91,166.70 201.00,160.00
             201.00,160.00 210.00,156.52 210.00,156.52 Z
           M 256.00,158.00
           C 256.00,158.00 255.00,159.00 255.00,159.00
             255.00,159.00 255.00,158.00 255.00,158.00
             255.00,158.00 256.00,158.00 256.00,158.00 Z
           M 93.65,169.23
           C 90.79,172.65 91.01,176.83 91.00,181.00
             90.98,190.39 89.52,193.99 97.29,200.76
             109.07,211.03 129.02,212.75 144.00,213.82
             152.02,214.39 163.92,211.10 169.81,205.54
             176.14,199.57 178.47,188.19 172.29,181.33
             168.74,177.38 161.10,175.62 156.00,173.60
             140.18,167.33 123.13,162.45 106.00,164.32
             102.06,165.17 96.30,166.06 93.65,169.23 Z
           M 79.96,181.79
           C 82.08,180.74 85.49,177.17 83.87,174.60
             82.55,172.50 78.86,173.51 77.00,174.09
             71.07,175.94 63.99,178.26 61.00,184.00
             61.00,184.00 79.96,181.79 79.96,181.79 Z
           M 123.00,187.73
           C 123.00,187.73 109.00,184.70 109.00,184.70
             106.58,184.31 100.59,183.16 100.61,179.90
             100.64,175.64 113.59,173.82 117.00,173.29
             134.58,170.58 150.03,172.48 162.00,187.00
             153.53,190.99 152.71,183.72 146.00,182.08
             141.75,181.04 137.75,184.19 135.00,187.00
             135.00,187.00 123.00,187.73 123.00,187.73 Z
           M 182.00,184.00
           C 182.00,184.00 182.00,187.00 182.00,187.00
             182.00,187.00 185.00,185.00 185.00,185.00
             185.00,185.00 182.00,184.00 182.00,184.00 Z
           M 216.15,185.78
           C 205.16,191.82 208.93,215.13 216.15,222.90
             222.00,229.07 233.69,232.22 242.00,231.98
             245.44,231.88 248.59,230.68 252.04,231.14
             252.04,231.14 259.00,232.64 259.00,232.64
             262.40,233.04 271.17,232.17 273.57,229.69
             276.68,226.48 275.74,222.88 275.28,219.00
             274.49,212.19 275.93,207.35 273.00,201.00
             276.56,197.43 271.21,192.00 267.98,190.01
             262.42,186.57 247.36,185.05 242.00,189.00
             242.00,189.00 260.00,203.28 260.00,203.28
             260.00,203.28 269.00,211.00 269.00,211.00
             268.30,211.33 268.36,211.79 266.78,211.84
             263.75,211.93 253.51,207.03 251.59,204.66
             249.89,202.57 250.04,200.23 248.41,199.02
             246.68,197.78 242.36,198.95 240.00,199.02
             240.00,199.02 241.00,200.96 241.00,200.96
             233.74,198.94 232.54,200.64 226.00,200.96
             226.00,200.96 217.00,200.96 217.00,200.96
             219.35,188.37 228.23,191.06 236.00,185.78
             230.87,184.75 220.75,182.91 216.15,185.78 Z
           M 160.00,186.00
           C 160.00,186.00 161.00,187.00 161.00,187.00
             161.00,187.00 161.00,186.00 161.00,186.00
             161.00,186.00 160.00,186.00 160.00,186.00 Z
           M 177.00,208.00
           C 173.41,208.98 170.18,216.54 163.00,219.64
             156.39,222.49 132.93,219.71 125.00,218.57
             114.78,217.10 101.54,213.85 93.00,207.95
             85.38,202.68 83.57,195.15 74.00,192.61
             65.82,190.44 51.26,192.65 48.78,202.00
             47.25,206.58 48.99,215.49 48.78,221.00
             49.02,236.62 48.30,249.46 51.66,265.00
             54.74,279.21 58.20,282.03 64.69,294.00
             71.87,307.24 78.14,320.02 89.17,330.71
             99.57,340.80 104.62,341.25 116.00,347.63
             116.00,347.63 134.00,358.68 134.00,358.68
             145.84,364.29 152.40,364.14 165.00,364.00
             165.00,364.00 184.00,363.00 184.00,363.00
             195.67,362.98 199.84,359.32 210.00,354.25
             216.68,350.91 226.37,346.33 232.00,341.67
             238.79,336.06 238.86,334.05 243.53,328.00
             243.53,328.00 249.48,321.00 249.48,321.00
             256.79,311.67 262.13,300.15 266.00,289.00
             252.78,292.44 246.22,291.18 234.00,285.00
             248.99,281.36 259.10,292.21 269.35,277.98
             270.84,275.93 271.87,273.36 272.80,271.00
             274.46,266.75 275.06,265.52 274.00,261.00
             274.00,261.00 276.00,262.00 276.00,262.00
             276.23,256.31 280.58,250.64 279.76,245.00
             278.79,238.38 273.71,237.04 268.00,237.29
             268.00,237.29 240.00,239.91 240.00,239.91
             233.78,239.52 229.72,236.83 224.00,234.89
             222.24,234.45 219.28,233.34 217.69,234.89
             215.54,236.73 217.87,240.95 216.47,247.00
             214.50,255.56 205.12,265.13 196.00,265.31
             191.63,265.40 187.60,263.33 184.00,261.06
             182.13,259.88 179.19,257.36 177.00,257.33
             174.35,257.29 172.11,260.02 169.00,261.55
             164.32,263.85 159.35,263.30 155.00,260.60
             145.46,254.69 139.94,240.08 151.04,232.84
             151.04,232.84 173.00,226.00 173.00,226.00
             171.89,228.75 171.41,230.41 168.91,232.30
             165.14,235.15 152.64,236.59 154.57,247.00
             154.88,248.65 155.71,250.55 156.70,251.90
             157.64,253.18 158.70,254.15 160.04,254.99
             168.59,260.36 172.58,250.48 178.45,250.03
             186.95,249.38 195.55,264.47 203.36,255.72
             204.52,254.41 205.32,252.56 206.10,251.00
             206.10,251.00 209.01,245.00 209.01,245.00
             214.75,229.37 199.58,218.40 197.88,204.09
             197.48,201.99 197.84,199.16 197.88,197.00
             197.88,197.00 204.00,200.00 204.00,200.00
             202.53,193.11 200.72,194.02 196.00,190.00
             196.00,190.00 194.00,189.00 194.00,189.00
             185.39,192.45 177.84,197.89 177.00,208.00 Z
           M 288.07,203.00
           C 288.75,198.87 288.96,193.25 283.97,191.66
             278.56,189.93 279.54,195.96 279.41,199.00
             279.21,203.54 277.98,217.25 280.26,220.79
             281.18,222.22 281.72,222.23 283.00,223.00
             283.00,223.00 286.00,215.00 286.00,215.00
             285.77,210.06 287.28,207.83 288.07,203.00 Z
           M 304.00,193.00
           C 304.00,193.00 303.00,194.00 303.00,194.00
             303.00,194.00 303.00,193.00 303.00,193.00
             303.00,193.00 304.00,193.00 304.00,193.00 Z
           M 14.21,222.00
           C 15.44,230.56 22.05,231.95 23.66,240.00
             25.42,248.82 22.27,263.00 25.48,272.00
             27.47,277.56 32.05,280.33 37.87,278.43
             43.58,276.56 43.18,264.90 42.77,260.00
             41.63,246.30 38.73,233.01 34.33,220.00
             31.96,212.99 28.58,206.52 20.04,207.64
             14.48,210.75 13.34,215.95 14.21,222.00 Z
           M 17.00,230.00
           C 17.00,230.00 18.00,231.00 18.00,231.00
             18.00,231.00 18.00,230.00 18.00,230.00
             18.00,230.00 17.00,230.00 17.00,230.00 Z
           M 18.00,231.00
           C 18.00,231.00 19.00,232.00 19.00,232.00
             19.00,232.00 19.00,231.00 19.00,231.00
             19.00,231.00 18.00,231.00 18.00,231.00 Z
           M 107.00,275.47
           C 104.30,276.09 100.80,276.03 98.00,276.00
             94.17,275.95 84.18,274.10 85.88,268.21
             86.70,265.38 89.71,265.30 92.00,266.17
             94.50,267.13 96.27,269.20 100.00,269.76
             108.87,271.10 116.43,262.23 124.00,259.00
             125.27,267.83 114.48,273.76 107.00,275.47 Z
           M 141.00,287.00
           C 146.51,292.86 157.16,295.20 165.00,294.98
             171.86,294.80 174.49,292.20 179.00,292.50
             183.82,292.82 197.73,300.35 203.00,302.69
             205.97,304.01 210.77,306.15 214.00,305.17
             217.34,304.16 221.07,299.42 224.00,297.00
             224.00,297.00 227.24,304.00 227.24,304.00
             229.45,311.86 220.88,311.05 216.00,311.00
             206.72,310.89 200.05,306.60 191.28,304.23
             176.19,300.16 174.61,301.80 161.00,300.79
             161.00,300.79 144.00,298.32 144.00,298.32
             138.35,297.72 133.52,302.02 129.00,305.00
             126.07,294.65 131.38,289.63 141.00,287.00 Z
           M 132.00,304.00
           C 132.00,304.00 131.00,305.00 131.00,305.00
             131.00,305.00 131.00,304.00 131.00,304.00
             131.00,304.00 132.00,304.00 132.00,304.00 Z
           M 179.00,317.55
           C 185.45,318.87 193.04,319.28 198.00,324.00
             198.00,324.00 196.00,323.00 196.00,323.00
             196.00,323.00 197.00,326.00 197.00,326.00
             188.63,327.47 190.58,326.47 183.00,325.29
             172.89,323.73 165.63,322.81 159.00,314.00
             159.00,314.00 160.00,312.00 160.00,312.00
             160.00,312.00 179.00,317.55 179.00,317.55 Z
           M 79.38,352.07
           C 85.38,348.27 86.91,358.51 86.77,362.00
             86.77,362.00 84.91,383.00 84.91,383.00
             84.91,383.00 84.91,394.00 84.91,394.00
             84.41,397.87 85.71,401.48 84.00,405.00
             84.00,405.00 81.00,405.00 81.00,405.00
             80.45,402.08 79.80,395.45 75.89,395.30
             72.05,395.14 66.22,403.09 59.02,398.40
             44.87,389.20 55.56,362.49 75.00,368.00
             75.88,364.95 77.43,353.30 79.38,352.07 Z
           M 78.00,353.00
           C 78.00,353.00 79.00,354.00 79.00,354.00
             79.00,354.00 79.00,353.00 79.00,353.00
             79.00,353.00 78.00,353.00 78.00,353.00 Z
           M 276.42,375.00
           C 276.86,378.26 277.05,379.64 276.98,383.00
             276.92,386.46 276.74,392.71 271.96,392.71
             270.30,392.71 268.96,392.03 267.98,390.69
             264.60,386.02 266.97,370.20 269.93,366.51
             271.11,365.05 272.39,364.71 274.00,364.00
             276.38,369.63 275.66,369.29 276.42,375.00 Z
           M 270.00,366.00
           C 270.00,366.00 271.00,367.00 271.00,367.00
             271.00,367.00 271.00,366.00 271.00,366.00
             271.00,366.00 270.00,366.00 270.00,366.00 Z
           M 124.85,399.00
           C 122.58,404.78 117.80,407.22 112.00,408.32
             100.91,410.42 92.41,403.64 94.47,392.00
             96.12,382.69 101.85,375.26 111.00,372.57
             123.43,371.73 128.70,389.22 124.85,399.00 Z
           M 61.91,383.00
           C 61.29,386.81 63.51,391.42 68.01,390.16
             74.97,388.20 79.95,377.04 69.00,375.66
             65.23,376.83 62.58,378.80 61.91,383.00 Z
           M 141.74,403.00
           C 141.74,403.00 142.28,378.06 142.28,378.06
             142.76,373.69 146.43,373.50 147.97,377.15
             147.97,377.15 149.00,391.00 149.00,391.00
             153.81,390.57 159.51,388.18 164.00,389.51
             172.68,392.07 177.60,404.93 170.77,411.66
             161.70,420.61 155.92,410.44 149.00,422.00
             149.00,422.00 142.00,418.00 142.00,418.00
             142.00,418.00 144.00,419.00 144.00,419.00
             141.47,414.21 141.95,408.32 141.74,403.00 Z
           M 104.65,384.43
           C 101.12,388.16 97.99,404.66 110.00,401.57
             120.02,398.98 121.74,381.69 108.04,382.47
             106.42,383.15 106.02,382.99 104.65,384.43 Z
           M 223.04,391.71
           C 223.04,391.71 226.00,394.17 226.00,394.17
             237.15,402.61 231.66,388.05 243.00,385.00
             244.95,392.58 240.98,401.87 236.37,407.91
             236.37,407.91 230.44,414.09 230.44,414.09
             230.44,414.09 223.42,422.70 223.42,422.70
             219.03,427.85 212.03,433.85 207.00,426.00
             210.14,424.92 211.98,421.57 214.00,419.00
             223.65,406.71 220.86,409.12 222.00,396.00
             222.00,396.00 218.00,394.00 218.00,394.00
             218.00,394.00 219.00,392.00 219.00,392.00
             219.00,392.00 216.00,387.00 216.00,387.00
             216.00,387.00 219.00,387.00 219.00,387.00
             220.40,388.91 221.27,390.07 223.04,391.71 Z
           M 199.65,401.11
           C 196.72,404.87 195.92,412.93 190.96,414.04
             187.54,414.80 185.75,411.68 184.71,408.98
             183.13,404.54 182.10,396.54 184.71,392.35
             187.12,388.19 190.98,391.97 194.00,392.35
             196.71,392.79 198.47,391.30 202.00,391.14
             205.90,390.97 208.60,392.41 212.00,394.00
             212.00,394.00 212.00,396.00 212.00,396.00
             207.20,397.38 203.07,396.72 199.65,401.11 Z
           M 163.85,403.95
           C 164.42,402.46 165.01,400.05 163.85,398.45
             162.57,396.78 159.74,397.53 158.00,398.45
             153.25,400.32 151.05,403.09 150.00,408.00
             154.94,409.16 161.36,409.46 163.85,403.95 Z
           M 272.90,417.22
           C 266.73,419.42 261.25,409.73 270.04,404.78
             280.64,403.30 278.73,415.14 272.90,417.22 Z
           M 207.00,428.00
           C 207.00,428.00 206.00,429.00 206.00,429.00
             206.00,429.00 206.00,428.00 206.00,428.00
             206.00,428.00 207.00,428.00 207.00,428.00 Z" />
</svg>
